<svg xmlns="http://www.w3.org/2000/svg" width="96.00" height="96.00" viewBox="0 0 96.00 96.00"><defs><clipPath id="g1"><rect x="0" y="0" width="55.857421875" height="55.8813591003418" rx="0"/></clipPath></defs><g transform="matrix(1 0 0 1 -794.02734375 -2919.728515625)"><g transform="matrix(1 0 0 1 794.02734375 2919.728515625)"><path d="M 48 0 C 74.50966644287109 0 96 21.49033355712891 96 48 C 96 74.50966644287109 74.50966644287109 96 48 96 C 21.49033355712891 96 0 74.50966644287109 0 48 C 0 21.49033355712891 21.49033355712891 0 48 0 Z" fill="rgb(254,232,91)" stroke="none" stroke-width="0"/></g><g transform="matrix(1 0 0 1 814.028076171875 2939.728515625)"><g><g clip-path="url(#g1)"><g transform="matrix(1 0 0 1 4.10164866480045e-05 0.00038940299418754876)"><path d="M 6.758633136749268 52.52653884887695 L 8.091464042663574 46.169189453125 C 9.125938415527344 41.23497772216797 13.43158626556396 37.67847442626953 18.49870109558105 37.64397430419922 L 20.85562133789062 37.62777709960938 L 21.75209808349609 36.17807006835938 C 16.40440368652344 34.9140625 11.64391803741455 32.68704605102539 7.115075588226318 29.79378890991211 C 6.772891521453857 29.46181488037109 7.21241569519043 28.75421142578125 7.466062068939209 28.48419570922852 C 9.511953353881836 26.30716896057129 10.70766258239746 23.62495994567871 11.23836612701416 20.71216773986816 C 6.746487617492676 21.10293388366699 2.527619123458862 18.47793388366699 0.8277851939201355 14.45620727539062 C -1.011105418205261 10.10532283782959 0.3074672818183899 5.225671291351318 3.852352142333984 2.372372150421143 C 7.485599994659424 -0.5520392656326294 12.58175659179688 -0.7071136236190796 16.42464637756348 2.072256565093994 C 19.97393226623535 -0.674197793006897 24.08736419677734 -0.5060977339744568 27.96352386474609 1.532928466796875 C 30.55402374267578 0.1099754199385643 33.49814605712891 -0.4707175493240356 36.31465911865234 0.4308615922927856 C 40.31349945068359 1.710885643959045 42.98145294189453 5.197155952453613 43.60104370117188 9.323614120483398 C 44.38187026977539 14.52274417877197 43.65948104858398 19.51909637451172 45.69639587402344 24.3295726776123 C 50.99093246459961 24.34576606750488 55.30872344970703 28.3701343536377 55.80809020996094 33.47650146484375 C 56.32472229003906 38.75677490234375 52.72790145874023 43.5927734375 47.35592269897461 44.49699783325195 L 49.09201431274414 52.43113708496094 C 49.41289901733398 53.89738845825195 48.41028594970703 55.87850570678711 46.65711975097656 55.87850570678711 L 9.204092025756836 55.88097381591797 C 7.556536197662354 55.88097381591797 6.44830846786499 54.00669860839844 6.758633136749268 52.52653884887695 M 39.0839958190918 14.50514125823975 C 39.18485641479492 14.64419841766357 39.40206527709961 15.07491970062256 39.44976425170898 15.22489070892334 L 39.44888687133789 24.21885681152344 L 39.143310546875 26.73806762695312 C 40.60868835449219 25.5464038848877 42.23934555053711 24.76187896728516 44.18789672851562 24.46264457702637 C 42.16858673095703 19.45449829101562 42.99958038330078 14.28529071807861 42.12247085571289 9.231202125549316 C 41.51537322998047 5.732611656188965 39.12676620483398 2.774755954742432 35.70140075683594 1.749258160591125 C 33.18412780761719 0.9955365657806396 30.59538841247559 1.601224541664124 28.40146255493164 2.945144176483154 C 28.19586944580078 3.071175336837769 27.65724563598633 3.094762086868286 27.43088340759277 2.943560123443604 C 24.56631851196289 1.030388712882996 20.3453369140625 0.8490872383117676 17.56350326538086 3.04547643661499 C 20.3485050201416 5.777145385742188 21.29426574707031 9.587469100952148 20.25627136230469 13.35343647003174 C 23.12083435058594 12.23781585693359 25.47317695617676 10.3807954788208 27.20874404907227 7.90770149230957 C 27.35167503356934 7.70404577255249 27.72272491455078 7.444591522216797 27.92990303039551 7.444591522216797 C 28.13725662231445 7.444766998291016 28.51095008850098 7.704926013946533 28.64789390563965 7.904533386230469 C 30.16695404052734 10.11975574493408 32.18802642822266 11.72735500335693 34.57328414916992 12.91672897338867 C 36.03636932373047 13.57029438018799 37.41355895996094 14.06068801879883 39.0839958190918 14.50514125823975 M 19.2249641418457 10.40350151062012 C 19.2249641418457 5.493575096130371 15.24460124969482 1.513214111328125 10.3348503112793 1.513214111328125 C 5.424922943115234 1.513214111328125 1.444562315940857 5.493575096130371 1.444562315940857 10.40350151062012 C 1.444562315940857 15.31342887878418 5.424922943115234 19.29361343383789 10.3348503112793 19.29361343383789 C 15.24460124969482 19.29361343383789 19.2249641418457 15.31342887878418 19.2249641418457 10.40350151062012 M 34.52927780151367 31.00974273681641 C 36.6485710144043 29.24795150756836 37.9850959777832 26.93398094177246 37.99213790893555 24.20899963378906 L 38.01361083984375 15.6978588104248 C 34.0462760925293 14.64648628234863 30.46865272521973 12.67716407775879 27.92708778381348 9.394374847412109 C 25.81993865966797 12.17004776000977 22.82089424133301 14.03762817382812 19.52525520324707 15.1865177154541 C 19.00546646118164 16.00959396362305 18.52809715270996 16.68815422058105 17.85481643676758 17.44891738891602 L 17.85675239562988 24.04178047180176 C 17.85763359069824 26.79580307006836 19.15437889099121 29.25287818908691 21.28757858276367 30.95500183105469 C 25.12553787231445 34.0175895690918 30.5876407623291 34.04751205444336 34.52927780151367 31.00974273681641 M 22.36236000061035 34.8112678527832 C 22.63431358337402 34.26771545410156 22.72601890563965 33.85899353027344 22.63730430603027 33.502197265625 C 19.1366024017334 31.79831695556641 16.49329376220703 28.50232315063477 16.45791625976562 24.57107353210449 L 16.40563774108887 18.76555252075195 C 15.26748371124268 19.54831695556641 14.1221170425415 20.04962348937988 12.76587581634521 20.4639778137207 C 12.26122283935547 23.64361953735352 10.99739265441895 26.58933067321777 8.83409595489502 29.16029167175293 C 13.11598014831543 31.79286003112793 17.50787925720215 33.76799392700195 22.36236000061035 34.8112678527832 M 54.41664505004883 34.49231719970703 C 54.41664505004883 29.6807861328125 50.51602935791016 25.78016090393066 45.70449066162109 25.78016090393066 C 40.89313888549805 25.78016090393066 36.99251556396484 29.6807861328125 36.99251556396484 34.49231719970703 C 36.99251556396484 39.30367279052734 40.89313888549805 43.20429611206055 45.70449066162109 43.20429611206055 C 50.51602935791016 43.20429611206055 54.41664505004883 39.30367279052734 54.41664505004883 34.49231719970703 M 33.66290283203125 34.83626174926758 L 35.49651336669922 34.38177490234375 L 35.83816909790039 31.89107704162598 L 33.16757965087891 33.59971237182617 C 33.1126594543457 33.94013595581055 33.32758331298828 34.68276977539062 33.66290283203125 34.83626174926758 M 33.58140563964844 38.12679672241211 C 32.65817642211914 36.69609832763672 32.11444854736328 35.51077270507812 31.69745445251465 34.10295867919922 C 29.24636459350586 34.91107177734375 26.61150741577148 34.92321395874023 24.16499137878418 34.1024284362793 C 23.7377872467041 35.55354690551758 23.13632392883301 36.80751800537109 22.26766204833984 38.14932632446289 C 25.9688549041748 40.58633804321289 29.91383743286133 40.63351058959961 33.58140563964844 38.12679672241211 M 34.98957443237305 37.51864624023438 C 35.09483337402344 37.67477416992188 35.81546401977539 37.63921737670898 35.99553298950195 37.61228561401367 L 35.62923049926758 35.83430099487305 L 34.11034774780273 36.21485900878906 L 34.98957443237305 37.51864624023438 Z M 17.55927848815918 48.6153564453125 L 17.56332588195801 54.4882926940918 L 27.20487022399902 54.46629333496094 L 27.20029640197754 41.40589141845703 C 24.91765594482422 41.16984558105469 22.88637351989746 40.42087936401367 21.05540657043457 39.06956481933594 L 18.21653938293457 39.0755500793457 C 14.14323806762695 39.2878303527832 10.48446846008301 42.056640625 9.609467506408691 46.10635375976562 L 8.169793128967285 52.77138137817383 C 7.98778772354126 53.61417388916016 8.667580604553223 54.47808456420898 9.535364151000977 54.4782600402832 L 16.10868835449219 54.48019790649414 L 16.12752342224121 48.35730743408203 C 16.12840461730957 48.07373809814453 16.72916412353516 47.74528503417969 16.98861885070801 47.81498718261719 C 17.25564193725586 47.88663101196289 17.50207138061523 48.24694442749023 17.55927848815918 48.6153564453125 M 39.75868225097656 54.48442077636719 L 46.32285308837891 54.48054885864258 C 47.21756744384766 54.41982269287109 47.8299446105957 53.66345977783203 47.69353485107422 52.76593017578125 L 46.56242370605469 47.39817428588867 L 45.78669738769531 44.6469612121582 C 41.83572769165039 44.66139984130859 38.3985710144043 42.48595428466797 36.64469909667969 39.05953216552734 L 34.80475234985352 39.08135986328125 C 32.96445083618164 40.41841125488281 30.95024490356445 41.16544723510742 28.65845489501953 41.40853118896484 L 28.66039276123047 54.48213195800781 L 38.29630279541016 54.47966766357422 L 38.30844497680664 48.40254592895508 C 38.42021942138672 48.05772018432617 38.83210754394531 47.772216796875 39.16003799438477 47.81516265869141 C 39.38851165771484 47.84491348266602 39.7379150390625 48.25275039672852 39.73879241943359 48.50798416137695 L 39.75868225097656 54.48442077636719 Z" fill="rgb(117,65,20)" stroke="none" stroke-width="0"/></g><g transform="matrix(1 0 0 1 -118.93214416503906 -125.47200012207031)"><path d="M 145.4530334472656 152.3641204833984 C 147.2065582275391 153.9789428710938 148.3748168945312 151.7121429443359 149.20263671875 152.4151611328125 C 149.3739013671875 152.5603942871094 149.4876098632812 153.11572265625 149.3365936279297 153.2903442382812 C 148.0706481933594 154.7528991699219 145.8084259033203 154.7902069091797 144.4609985351562 153.3894348144531 C 144.299560546875 153.2215118408203 144.3062744140625 152.7015686035156 144.4330139160156 152.5186767578125 C 144.5808563232422 152.3053283691406 145.2620544433594 152.1882781982422 145.4530334472656 152.3641204833984" fill="rgb(117,65,20)" stroke="none" stroke-width="0"/></g><g transform="matrix(1 0 0 1 -107.15992736816406 -86.62183380126953)"><path d="M 131.3779449462891 105.4886322021484 C 131.61767578125 106.6686782836914 131.5587158203125 107.8047180175781 130.8482971191406 107.8828735351562 C 130.6749267578125 107.9018859863281 130.1943664550781 107.7205810546875 130.1496734619141 107.5403366088867 C 130.0280456542969 107.0490646362305 130.0113220214844 106.005256652832 130.1473693847656 105.4573059082031 C 130.2632141113281 104.9917297363281 131.2850036621094 105.0309829711914 131.3779449462891 105.4886322021484" fill="rgb(117,65,20)" stroke="none" stroke-width="0"/></g><g transform="matrix(1 0 0 1 -147.60166931152344 -86.69742584228516)"><path d="M 180.5397796630859 107.4826736450195 C 180.5246276855469 107.7262878417969 179.9668273925781 108.0049285888672 179.7619323730469 107.9635620117188 C 179.5227203369141 107.9153366088867 179.1155853271484 107.5141830444336 179.1333618164062 107.2424087524414 L 179.2472381591797 105.5270843505859 C 179.2727661132812 105.1422958374023 180.4068908691406 105.0974197387695 180.4751739501953 105.5022659301758 C 180.5737457275391 106.0880584716797 180.5825500488281 106.7873916625977 180.5397796630859 107.4826736450195" fill="rgb(117,65,20)" stroke="none" stroke-width="0"/></g><g transform="matrix(1 0 0 1 -23.509252548217773 -58.826263427734375)"><path d="M 37.75162887573242 71.99843597412109 C 37.93715667724609 71.55398559570312 38.36172103881836 71.318115234375 38.7371711730957 71.43411254882812 C 40.12263107299805 71.86237335205078 37.85108184814453 76.06892395019531 33.8372802734375 76.049560546875 C 29.77858734130859 76.02984619140625 27.55262565612793 71.81537628173828 28.94882392883301 71.41175842285156 C 29.26442909240723 71.32057952880859 29.76485824584961 71.57157897949219 29.9019775390625 71.91835021972656 C 30.54867744445801 73.55552673339844 32.04397583007812 74.55372619628906 33.67304992675781 74.62309265136719 C 35.39664459228516 74.69648742675781 37.03522491455078 73.71464538574219 37.75162887573242 71.99843597412109" fill="rgb(117,65,20)" stroke="none" stroke-width="0"/></g><g transform="matrix(1 0 0 1 -18.336877822875977 -29.20314598083496)"><path d="M 26.20641899108887 38.46272659301758 C 25.15539932250977 38.46325302124023 25.73292350769043 36.94560241699219 24.60691833496094 36.85970306396484 C 23.53495025634766 36.77785491943359 23.97201156616211 38.35535049438477 23.02554512023926 38.45920562744141 C 22.60045623779297 38.50585174560547 22.2070484161377 38.06087112426758 22.25862312316895 37.60638427734375 C 22.40841674804688 36.28746032714844 23.43532180786133 35.4029541015625 24.62751197814941 35.44291305541992 C 25.83466339111328 35.48322296142578 26.88163566589355 36.41648483276367 26.87688255310059 37.7762451171875 C 26.87600326538086 38.04819869995117 26.44968223571777 38.46255111694336 26.20641899108887 38.46272659301758" fill="rgb(117,65,20)" stroke="none" stroke-width="0"/></g><g transform="matrix(1 0 0 1 -56.73936462402344 -29.22313690185547)"><path d="M 72.87150573730469 38.47233200073242 C 71.77894592285156 38.57811737060547 72.22956085205078 36.77196884155273 71.12942504882812 36.87687683105469 C 69.98599243164062 36.98565673828125 70.5797119140625 38.37850952148438 69.69943237304688 38.47708129882812 C 69.32504272460938 38.51897430419922 68.86456298828125 38.17502975463867 68.86034393310547 37.7847900390625 C 68.84608459472656 36.45635986328125 69.91417694091797 35.49105834960938 71.10460662841797 35.46642303466797 C 72.31562805175781 35.44124603271484 73.37158966064453 36.27928161621094 73.46593475341797 37.62249755859375 C 73.49391937255859 38.02065658569336 73.21211242675781 38.43941116333008 72.87150573730469 38.47233200073242" fill="rgb(117,65,20)" stroke="none" stroke-width="0"/></g><g transform="matrix(1 0 0 1 -189.12875366210938 -165.8571014404297)"><path d="M 238.7758026123047 205.5329132080078 C 238.0796356201172 203.7012481689453 236.5915679931641 202.7343597412109 234.8336334228516 202.7216796875 C 233.1089935302734 202.7091827392578 231.5746154785156 203.7418975830078 230.9302062988281 205.4503631591797 C 230.8465881347656 205.6719665527344 230.3421173095703 205.9474487304688 230.1273651123047 205.8812561035156 C 229.9120941162109 205.8150787353516 229.5780029296875 205.4035491943359 229.531005859375 205.1569366455078 C 230.2275238037109 202.8931274414062 232.3807983398438 201.2754974365234 234.6734619140625 201.2946929931641 C 237.13037109375 201.173583984375 239.2026519775391 202.7065582275391 240.1369781494141 205.0168151855469 C 240.0237884521484 205.3331298828125 239.8636169433594 205.6654510498047 239.6988677978516 205.8240509033203 C 239.5269012451172 205.989501953125 238.8712158203125 205.7841033935547 238.7758026123047 205.5329132080078" fill="rgb(117,65,20)" stroke="none" stroke-width="0"/></g><g transform="matrix(1 0 0 1 -184.55029296875 -142.23272705078125)"><path d="M 227.9662017822266 175.5969543457031 C 226.7136383056641 175.7236785888672 227.3665008544922 173.9696502685547 226.207763671875 174.0421447753906 C 225.2320709228516 174.1032409667969 225.5860443115234 175.5089416503906 224.7958984375 175.6089324951172 C 224.4067077636719 175.658203125 223.9779052734375 175.3035278320312 223.9745635986328 174.9076538085938 C 223.963134765625 173.5838012695312 224.9870452880859 172.6494750976562 226.2015991210938 172.6176147460938 C 227.3490753173828 172.5876922607422 228.3960418701172 173.4873352050781 228.5226135253906 174.7615509033203 C 228.5583343505859 175.121337890625 228.2374572753906 175.5694885253906 227.9662017822266 175.5969543457031" fill="rgb(117,65,20)" stroke="none" stroke-width="0"/></g><g transform="matrix(1 0 0 1 -222.17132568359375 -142.28494262695312)"><path d="M 273.5130920410156 175.6646728515625 C 272.4636535644531 175.6900329589844 272.9324340820312 174.1329345703125 271.931396484375 174.0966796875 C 270.8789672851562 174.0584716796875 271.2442016601562 175.5066070556641 270.5216369628906 175.6564025878906 C 270.2525024414062 175.7121887207031 269.6973266601562 175.4650573730469 269.6593017578125 175.2221527099609 C 269.448974609375 173.8787536621094 270.4987487792969 172.8101501464844 271.6207275390625 172.6939697265625 C 272.9846801757812 172.5526123046875 274.1351318359375 173.5202026367188 274.1810913085938 174.9720153808594 C 274.1895751953125 175.2390441894531 273.7549438476562 175.6588592529297 273.5130920410156 175.6646728515625" fill="rgb(117,65,20)" stroke="none" stroke-width="0"/></g></g></g></g></g></svg>